<svg xmlns="http://www.w3.org/2000/svg" viewBox="0 0 16 16" shape-rendering="crispEdges"><rect x="3" y="1" width="1" height="1" fill="#fecc02"/><rect x="4" y="1" width="1" height="1" fill="#c7900a"/><rect x="2" y="2" width="2" height="1" fill="#fecc02"/><rect x="4" y="2" width="2" height="1" fill="#c7900a"/><rect x="10" y="2" width="2" height="1" fill="#fecc02"/><rect x="1" y="3" width="3" height="1" fill="#fecc02"/><rect x="4" y="3" width="3" height="1" fill="#c7900a"/><rect x="9" y="3" width="3" height="1" fill="#fecc02"/><rect x="12" y="3" width="1" height="1" fill="#c7900a"/><rect x="1" y="4" width="3" height="1" fill="#fecc02"/><rect x="4" y="4" width="4" height="1" fill="#c7900a"/><rect x="8" y="4" width="4" height="1" fill="#fecc02"/><rect x="12" y="4" width="2" height="1" fill="#c7900a"/><rect x="1" y="5" width="3" height="1" fill="#fecc02"/><rect x="4" y="5" width="4" height="1" fill="#c7900a"/><rect x="8" y="5" width="4" height="1" fill="#fecc02"/><rect x="12" y="5" width="3" height="1" fill="#c7900a"/><rect x="1" y="6" width="3" height="1" fill="#fecc02"/><rect x="5" y="6" width="3" height="1" fill="#c7900a"/><rect x="8" y="6" width="3" height="1" fill="#fecc02"/><rect x="12" y="6" width="3" height="1" fill="#c7900a"/><rect x="1" y="7" width="3" height="1" fill="#fecc02"/><rect x="6" y="7" width="2" height="1" fill="#c7900a"/><rect x="8" y="7" width="2" height="1" fill="#fecc02"/><rect x="12" y="7" width="3" height="1" fill="#c7900a"/><rect x="1" y="8" width="3" height="1" fill="#fecc02"/><rect x="7" y="8" width="1" height="1" fill="#c7900a"/><rect x="8" y="8" width="1" height="1" fill="#fecc02"/><rect x="12" y="8" width="3" height="1" fill="#c7900a"/><rect x="1" y="9" width="3" height="1" fill="#fecc02"/><rect x="12" y="9" width="3" height="1" fill="#c7900a"/><rect x="1" y="10" width="3" height="1" fill="#fecc02"/><rect x="12" y="10" width="3" height="1" fill="#c7900a"/><rect x="1" y="11" width="3" height="1" fill="#fecc02"/><rect x="12" y="11" width="3" height="1" fill="#c7900a"/><rect x="1" y="12" width="3" height="1" fill="#fecc02"/><rect x="12" y="12" width="3" height="1" fill="#c7900a"/><rect x="1" y="13" width="3" height="1" fill="#fecc02"/><rect x="12" y="13" width="3" height="1" fill="#c7900a"/><rect x="1" y="14" width="3" height="1" fill="#fecc02"/><rect x="12" y="14" width="3" height="1" fill="#c7900a"/></svg>
